<svg width="30" height="30" viewBox="0 0 30 30" fill="none" xmlns="http://www.w3.org/2000/svg">
<path d="M15.0269 11.9479C15.0253 11.9479 15.0236 11.9479 15.022 11.9479C14.3169 11.9479 13.6581 12.218 13.1675 12.708C12.6906 13.185 12.4281 13.8188 12.4292 14.4912C12.4308 15.8861 13.5878 17.0241 15.0089 17.0284C15.0111 17.0284 15.0133 17.0284 15.016 17.0284C15.7135 17.0284 16.3668 16.7595 16.8574 16.2705C17.3371 15.7925 17.6012 15.1598 17.6017 14.4895C17.6023 13.0919 16.4474 11.9517 15.0269 11.9479ZM16.0881 15.5001C15.8033 15.7838 15.4227 15.94 15.016 15.94C15.0149 15.94 15.0133 15.94 15.0116 15.94C14.1889 15.9373 13.5192 15.2872 13.5182 14.4901C13.5176 14.109 13.6668 13.7496 13.9379 13.4785C14.2227 13.1937 14.6076 13.0374 15.0225 13.0374C15.0231 13.0374 15.0236 13.0374 15.0247 13.0374C15.8458 13.0391 16.5128 13.6908 16.5122 14.4895C16.5117 14.869 16.3614 15.2279 16.0881 15.5001Z" fill="white"/>
<path d="M24.4134 20.3753H24.4117C24.1319 20.3263 23.8629 20.3922 23.5918 20.5762L23.4965 20.641C23.3473 20.7428 23.1986 20.8452 23.044 20.9372C22.138 21.4773 21.1329 21.9058 19.9705 22.2472C18.722 22.6153 17.3924 22.8374 16.0197 22.9093C15.2782 22.948 14.5371 22.9447 13.8179 22.8984C13.1172 22.8543 12.418 22.7688 11.7402 22.6442C10.5478 22.4253 9.42344 22.0899 8.3971 21.6472C7.59564 21.3026 6.97439 20.9617 6.44353 20.5757C6.34716 20.5055 6.23336 20.4477 6.11575 20.4102C5.83753 20.3192 5.53916 20.3492 5.29795 20.4902C5.0573 20.6307 4.89286 20.8621 4.83461 21.1436C4.80303 21.2977 4.80085 21.455 4.82753 21.5971C4.96637 22.342 5.10902 23.0868 5.2544 23.8311C5.36656 24.4061 5.4809 24.9805 5.59469 25.5549L5.71883 26.1816C5.78363 26.5077 5.91158 26.8148 6.09833 27.0941C6.28454 27.3729 6.51867 27.6272 6.81323 27.8711C7.23737 28.2228 7.74482 28.5267 8.36389 28.8011C9.2797 29.2078 10.3186 29.5078 11.5398 29.7196C12.3554 29.8612 13.1983 29.9499 13.9954 29.9777L15.8896 30L16.0007 29.9826C16.6655 29.9554 17.3455 29.8917 18.0223 29.7936C18.9223 29.663 19.7336 29.4817 20.5029 29.2394C21.2919 28.9905 21.9567 28.7014 22.5355 28.3541C22.9613 28.0987 23.3054 27.8292 23.5869 27.5308C23.9827 27.1127 24.2212 26.6705 24.3164 26.1811L24.764 23.9226C24.9132 23.1603 25.0597 22.3975 25.2034 21.6342C25.2284 21.4997 25.2323 21.3521 25.2143 21.2095C25.1609 20.7793 24.8468 20.4521 24.4134 20.3753ZM23.6957 23.7135L23.2482 25.9731C23.1927 26.2584 23.0489 26.5154 22.7957 26.7832C22.5828 27.0087 22.3144 27.2172 21.9758 27.4208C21.4716 27.7236 20.883 27.9789 20.1768 28.2016C19.4641 28.4259 18.7084 28.5942 17.8671 28.7167C17.2274 28.8098 16.5849 28.8697 15.9506 28.8958C15.9125 28.898 15.8744 28.9034 15.8324 28.9116H14.2148C14.1723 28.9029 14.1299 28.8974 14.089 28.8958C13.2908 28.8637 12.4959 28.7804 11.7277 28.647C10.5951 28.451 9.64014 28.176 8.80709 27.8063C8.28004 27.5727 7.85589 27.3196 7.50961 27.0332C7.29726 26.8578 7.13283 26.6798 7.00543 26.4898C6.89708 26.327 6.82575 26.1571 6.78873 25.9698L6.66458 25.3437C6.55025 24.7703 6.43699 24.197 6.32483 23.6237C6.19198 22.9425 6.06131 22.2608 5.93608 21.5514C6.50451 21.9478 7.15461 22.299 7.96751 22.6485C9.06898 23.1233 10.2723 23.4821 11.5447 23.7157C12.265 23.848 13.0072 23.9389 13.7509 23.9857C14.5116 24.0336 15.294 24.038 16.0775 23.9972C17.535 23.9215 18.949 23.6841 20.2792 23.2926C21.5304 22.9251 22.6171 22.4607 23.6037 21.8726C23.7769 21.7692 23.9446 21.6554 24.1117 21.541L24.1144 21.5389C23.9767 22.2636 23.8373 22.9888 23.6957 23.7135Z" fill="white"/>
<path d="M22.8442 3.15523C22.5382 2.99353 22.2235 2.88953 21.9289 2.80187C21.354 2.63091 20.7153 2.49424 19.9176 2.37174C19.1113 2.24814 18.2651 2.16048 17.3308 2.1044C16.9007 2.07826 16.47 2.06411 16.0105 2.04886C14.7778 2.00966 13.4885 2.03688 12.1774 2.13108C11.3269 2.1926 10.557 2.28135 9.82307 2.40223C9.06788 2.52637 8.49346 2.65758 7.96097 2.82692C7.6125 2.93744 7.33591 3.05015 7.08872 3.183C6.94008 3.26359 6.74733 3.37847 6.57528 3.5576C6.15222 3.99754 6.1544 4.55889 6.57909 4.98521C6.70595 5.11371 6.8448 5.21988 6.9918 5.30155C7.20796 5.42134 7.40615 5.51553 7.59617 5.58904C8.28221 5.85637 9.002 6.00447 9.61563 6.11336C10.6469 6.29685 11.7576 6.41718 13.0115 6.48034C13.4847 6.50375 13.9584 6.51628 14.4282 6.52825L15.0767 6.54513L15.6729 6.52771C16.0785 6.51628 16.4804 6.50484 16.8822 6.49014C17.6864 6.4602 18.5309 6.3905 19.3928 6.28161C20.1997 6.17979 20.8656 6.06055 21.4879 5.90538C21.85 5.81554 22.3247 5.68377 22.787 5.4649C22.94 5.39302 23.1671 5.27596 23.3718 5.09574C23.711 4.79628 23.778 4.4843 23.7741 4.27576C23.7703 4.06832 23.6936 3.76178 23.3494 3.48029C23.1785 3.33981 22.9901 3.23309 22.8442 3.15523ZM22.3226 4.48049C21.9463 4.65853 21.5385 4.77069 21.2249 4.8491C20.6456 4.99338 20.0205 5.10554 19.2572 5.20191C18.4269 5.30645 17.6145 5.37397 16.8424 5.40228C16.4433 5.41698 16.0448 5.42842 15.6419 5.43985L15.0772 5.45727L14.4565 5.44039C13.9954 5.42842 13.5304 5.41644 13.066 5.39357C11.8583 5.33259 10.7922 5.2177 9.80674 5.04184C9.21707 4.93676 8.58875 4.80717 7.99146 4.57468C7.84663 4.51805 7.692 4.44455 7.5194 4.34927C7.48401 4.32967 7.44807 4.30462 7.40778 4.26869C7.45624 4.22839 7.52049 4.18756 7.60597 4.14128C7.79 4.04218 8.00725 3.95398 8.28983 3.86469C8.77115 3.71169 9.2982 3.5919 10 3.47702C10.7008 3.36159 11.4385 3.27665 12.2558 3.21785C13.5293 3.12583 14.7805 3.09915 16.0034 3.13836C16.4237 3.15251 16.8446 3.16612 17.2649 3.19171C18.1655 3.24616 18.979 3.33001 19.7521 3.44816C20.4991 3.5625 21.0921 3.68936 21.6175 3.84617C21.8581 3.91804 22.1119 4.00026 22.3324 4.11732C22.4222 4.16523 22.5349 4.22839 22.628 4.29918C22.5545 4.35961 22.4587 4.41624 22.3226 4.48049Z" fill="white"/>
<path d="M15.0187 9.96335C15.0187 9.96335 15.0181 9.96335 15.0176 9.96335C13.7658 9.96335 12.5936 10.4463 11.7181 11.3234C10.866 12.1766 10.3983 13.3048 10.3999 14.4994C10.4032 16.9903 12.476 19.0147 15.0225 19.0141C15.0241 19.0141 15.0258 19.0141 15.0274 19.0141C16.2568 19.0131 17.4138 18.5415 18.2861 17.6867C19.1616 16.8292 19.6424 15.6912 19.6407 14.4825C19.6364 11.9904 17.5636 9.96335 15.0187 9.96335ZM17.5238 16.9098C16.8563 17.5637 15.9693 17.9247 15.0263 17.9257C15.0247 17.9257 15.0236 17.9257 15.0225 17.9257C13.076 17.9257 11.491 16.3887 11.4889 14.4983C11.4878 13.5944 11.8428 12.7402 12.4891 12.0933C13.1588 11.4225 14.0571 11.0528 15.0181 11.0528C15.0187 11.0528 15.0187 11.0528 15.0192 11.0528C16.9641 11.0528 18.5491 12.5926 18.5523 14.4858C18.5529 15.3977 18.1881 16.2591 17.5238 16.9098Z" fill="white"/>
<path d="M28.332 4.27304C28.3162 4.20552 28.2988 4.13801 28.2775 4.0743C28.1556 3.70896 27.9362 3.37193 27.6084 3.04307C27.2605 2.69515 26.8363 2.39188 26.2722 2.08752C25.6875 1.77335 25.0488 1.50819 24.2604 1.25229C23.3179 0.947386 22.3128 0.703461 21.2729 0.52814C20.6565 0.424146 20.0494 0.334307 19.469 0.261892C18.9719 0.199822 18.4509 0.150275 17.92 0.115429C17.4463 0.0843936 16.9721 0.063159 16.4984 0.0419245L15.888 0.0147008L15.79 0L14.2437 0.00108895L13.2119 0.0566254C12.7769 0.0794933 12.3413 0.102906 11.9063 0.131763C11.248 0.175321 10.5435 0.252636 9.75234 0.368065C7.98497 0.625057 6.55573 0.963175 5.25443 1.43306C4.47311 1.71564 3.84914 2.01183 3.29106 2.36629C2.89468 2.61783 2.57725 2.877 2.3208 3.1585C1.98214 3.53092 1.77633 3.91096 1.69302 4.32041L1.63477 4.45326V4.81424L1.8531 6.11499C1.96417 6.82444 2.07525 7.53389 2.19176 8.24171C2.33605 9.12104 2.48796 9.99982 2.63987 10.8781L3.7996 17.4891C3.84697 17.7657 3.95423 18.0325 4.11866 18.2807C4.31685 18.5813 4.57275 18.8546 4.92394 19.1399C5.40471 19.5303 5.95681 19.8657 6.66081 20.1962C7.5042 20.592 8.42926 20.9116 9.4899 21.1735C10.3284 21.381 11.1941 21.5351 12.135 21.644C13.0589 21.7518 14.0227 21.8062 15.0103 21.8062C15.3 21.8062 15.5913 21.8013 15.8842 21.792C17.5122 21.7398 19.0024 21.5459 20.4404 21.1991C21.6927 20.8969 22.7658 20.5136 23.7203 20.0274C24.2822 19.741 24.7499 19.4405 25.1506 19.1094C25.394 18.908 25.596 18.7049 25.7686 18.4887C26.024 18.1686 26.1884 17.7989 26.2565 17.39C26.3474 16.8455 26.4448 16.3016 26.5418 15.7582L27.4483 10.5868C27.567 9.90018 27.6852 9.21251 27.8006 8.52538C27.9078 7.88617 28.0156 7.24641 28.1191 6.60665C28.173 6.27452 28.2231 5.94185 28.2737 5.60918L28.3293 5.24057L28.3657 4.47504L28.332 4.27304ZM27.1968 5.44692C27.1472 5.77579 27.0977 6.1041 27.0443 6.43297C26.9414 7.07055 26.8341 7.70813 26.7269 8.34516C26.612 9.03065 26.4938 9.71669 26.3757 10.4016L25.4702 15.5665C25.3722 16.1137 25.2748 16.6615 25.1827 17.2103C25.1446 17.4373 25.0581 17.6334 24.917 17.8098C24.7918 17.9671 24.6415 18.1174 24.4564 18.2704C24.1178 18.5502 23.7154 18.8078 23.2259 19.0577C22.3488 19.5047 21.354 19.8592 20.1856 20.1412C18.8206 20.4706 17.4022 20.6546 15.8499 20.7047C14.6101 20.7445 13.403 20.6966 12.2613 20.5637C11.3662 20.4597 10.5456 20.3143 9.75179 20.1178C8.76194 19.8733 7.90221 19.5766 7.12416 19.2112C6.50182 18.9194 6.02105 18.6281 5.61106 18.2954C5.34917 18.082 5.16351 17.8871 5.02739 17.6807C4.94572 17.5571 4.89508 17.4346 4.8733 17.3061L3.71303 10.6924C3.56166 9.81742 3.4103 8.94191 3.26656 8.0653C3.15058 7.35966 3.03951 6.65293 2.92898 5.94621L2.75747 4.85726C2.75039 4.8137 2.7395 4.77123 2.72371 4.72277V4.68139C2.73624 4.64763 2.74713 4.60843 2.75475 4.56487C2.79341 4.34164 2.91101 4.12766 3.12608 3.89082C3.31828 3.67956 3.55622 3.48681 3.87364 3.28536C4.36313 2.97501 4.91904 2.71148 5.62359 2.45721C6.85464 2.01292 8.21583 1.69168 9.9086 1.44558C10.6714 1.33451 11.3487 1.25991 11.9787 1.21799C12.4088 1.18913 12.839 1.16681 13.2691 1.14394L13.8539 1.11236L15.7078 1.08895C15.7432 1.09439 15.7786 1.09929 15.8156 1.10147L16.4494 1.13033C16.916 1.15102 17.3826 1.17171 17.8487 1.20274C18.3583 1.23596 18.8581 1.28333 19.3345 1.34267C19.8997 1.41291 20.491 1.50057 21.0921 1.60184C22.0798 1.769 23.0332 1.99986 23.925 2.28843C24.6497 2.5231 25.2312 2.7643 25.7555 3.04688C26.2232 3.29897 26.5673 3.5429 26.838 3.8135C27.047 4.02258 27.1766 4.21532 27.2458 4.42222C27.2572 4.45543 27.2643 4.49028 27.2724 4.52513L27.2763 4.91062L27.1968 5.44692Z" fill="white"/>
</svg>
