<svg width="30" height="30" viewBox="0 0 30 30" fill="none" xmlns="http://www.w3.org/2000/svg">
<path d="M15 0C6.75591 0 0 6.8145 0 15.0586C0 23.2549 6.69434 30 15 30C23.2954 30 30 23.2649 30 15.0586C30 6.8145 23.2441 0 15 0ZM17.6367 27.9785C16.7931 28.1543 15.8965 28.2422 15 28.2422C14.1035 28.2422 13.2069 28.1543 12.3633 27.9785V23.8653C12.3633 22.8809 12.627 22.5293 12.9785 22.0546C13.1575 21.85 13.2655 21.6664 14.0682 20.4552L12.7148 20.2441C9.23424 19.7344 7.86324 17.9237 7.31827 16.5175C6.61514 14.6368 6.98433 12.2811 8.25005 10.7872C8.44345 10.5585 8.60161 10.1717 8.46107 9.76753C8.19717 8.95889 8.23242 7.67578 8.4082 7.18346C9.34021 7.31667 10.2985 7.98431 11.0978 8.4668C11.4661 8.68172 11.6592 8.62495 11.8359 8.64258C12.4782 8.50891 13.48 8.1855 15.0176 8.1855C15.9668 8.1855 16.9688 8.32603 17.9533 8.60733C18.1293 8.60321 18.4122 8.7529 18.9024 8.4668C19.7379 7.95776 20.6637 7.313 21.5918 7.18346C21.7676 7.67578 21.8028 8.95889 21.5392 9.76753C21.3984 10.1717 21.5565 10.5585 21.7502 10.7872C23.0157 12.2813 23.3849 14.6368 22.6817 16.5175C22.1368 17.9237 20.7658 19.7344 17.2852 20.2441L15.9318 20.4552C16.7615 21.7072 16.8489 21.8573 17.0217 22.0546C17.373 22.5293 17.6367 22.8809 17.6367 23.8653V27.9785ZM19.3945 27.4688V23.8653C19.3945 22.8632 19.1835 22.1954 18.9022 21.703C21.5742 20.9825 23.4727 19.4003 24.3164 17.1327C25.2129 14.7423 24.8087 11.8945 23.3144 9.92569C23.5783 8.74809 23.5783 6.86714 22.9454 5.98824C22.6641 5.60165 22.2773 5.39062 21.7852 5.39062C21.7676 5.39062 21.7676 5.39062 21.7676 5.39062C20.4046 5.46432 19.3318 6.15074 18.1817 6.84952C17.127 6.56822 16.0547 6.42769 14.9824 6.42769C13.8927 6.42769 12.8027 6.58585 11.8362 6.84952C10.6254 6.11938 9.56291 5.46249 8.16216 5.39062C7.7227 5.39062 7.33589 5.60165 7.0546 5.98824C6.42197 6.86714 6.42197 8.74809 6.68564 9.92569C5.19127 11.8945 4.78706 14.7597 5.68359 17.1327C6.52725 19.4003 8.42583 20.9825 11.0978 21.703C10.8797 22.0846 10.7071 22.5769 10.6391 23.2432C10.0994 23.4293 9.63135 23.4899 9.19601 23.362C8.73688 23.2262 8.37914 22.9198 8.06831 22.397C7.37022 21.2242 6.18118 20.2668 4.82735 20.3913L4.98184 22.1423C5.60875 22.0848 6.23268 22.7481 6.55678 23.2949C7.09145 24.1953 7.81174 24.7858 8.6982 25.0477C9.35623 25.2415 9.95773 25.237 10.6055 25.0987V27.4688C5.49019 25.6757 1.75781 20.7891 1.75781 15.0586C1.75781 7.7813 7.7227 1.75781 15 1.75781C22.2773 1.75781 28.2422 7.7813 28.2422 15.0586C28.2422 20.7891 24.5098 25.6757 19.3945 27.4688Z" fill="white"/>
</svg>
