<svg width="30" height="30" viewBox="0 0 30 30" fill="none" xmlns="http://www.w3.org/2000/svg">
<path d="M21.8792 0H8.12071C3.64288 0 0 3.64288 0 8.12071V21.8795C0 26.3571 3.64288 29.9999 8.12071 29.9999H21.8795C26.3571 29.9999 29.9999 26.3571 29.9999 21.8795V8.12071C29.9999 3.64288 26.3571 0 21.8792 0V0ZM28.2412 21.8795C28.2412 25.3873 25.3873 28.2412 21.8792 28.2412H8.12071C4.61265 28.2412 1.75872 25.3873 1.75872 21.8795V8.12071C1.75872 4.61265 4.61265 1.75872 8.12071 1.75872H21.8795C25.3873 1.75872 28.2412 4.61265 28.2412 8.12071V21.8795Z" fill="white"/>
<path d="M14.9998 6.79709C10.4766 6.79709 6.79688 10.4768 6.79688 15C6.79688 19.5231 10.4766 23.2029 14.9998 23.2029C19.5229 23.2029 23.2026 19.5231 23.2026 15C23.2026 10.4768 19.5229 6.79709 14.9998 6.79709ZM14.9998 21.4441C11.4466 21.4441 8.5556 18.5534 8.5556 15C8.5556 11.4468 11.4466 8.55581 14.9998 8.55581C18.5531 8.55581 21.4439 11.4468 21.4439 15C21.4439 18.5534 18.5531 21.4441 14.9998 21.4441Z" fill="white"/>
<path d="M23.3989 3.88388C22.0623 3.88388 20.9751 4.9713 20.9751 6.30773C20.9751 7.6444 22.0623 8.73182 23.3989 8.73182C24.7356 8.73182 25.823 7.6444 25.823 6.30773C25.823 4.97107 24.7356 3.88388 23.3989 3.88388ZM23.3989 6.97286C23.0323 6.97286 22.7338 6.6744 22.7338 6.30773C22.7338 5.94084 23.0323 5.64261 23.3989 5.64261C23.7658 5.64261 24.0643 5.94084 24.0643 6.30773C24.0643 6.6744 23.7658 6.97286 23.3989 6.97286Z" fill="white"/>
</svg>
