<svg width="30" height="30" viewBox="0 0 30 30" fill="none" xmlns="http://www.w3.org/2000/svg">
<g clip-path="url(#clip0)">
<path d="M29.8281 5.52993C29.6753 5.37719 29.4207 5.32626 29.217 5.37719L28.1986 5.73366C28.8097 5.02079 29.217 4.25698 29.4716 3.54411C29.5735 3.28951 29.5225 3.08584 29.3697 2.93305C29.217 2.78031 28.9624 2.72938 28.7587 2.83118C27.3329 3.44225 26.1109 3.95145 25.0925 4.25693C25.0925 4.30786 25.0415 4.25693 24.9906 4.25693C24.1759 3.79866 22.19 2.78025 20.7643 2.78025C17.1489 2.83118 14.2465 5.88639 14.2465 9.60354V9.80721C8.95081 8.78881 6.0484 7.2612 2.89133 3.95139L2.38224 3.44219L2.07671 4.05326C0.345437 7.36307 1.56751 10.3673 3.55338 12.4042C2.63684 12.2514 2.02578 11.9459 1.46564 11.4876C1.26198 11.3349 1.00738 11.2839 0.752775 11.4367C0.549106 11.5385 0.447242 11.844 0.498174 12.0986C1.21104 14.4918 2.99325 16.4268 4.92819 17.598C4.01165 17.598 3.24785 17.4961 2.48405 16.9869C2.28038 16.885 1.97485 16.885 1.77118 17.0378C1.56751 17.1906 1.46564 17.4452 1.56751 17.6998C2.48405 20.2967 4.26625 21.6715 7.11779 22.028C5.64112 22.8937 3.70618 23.6065 0.701901 23.6575C0.396369 23.6575 0.141768 23.8611 0.0399628 24.1157C-0.061901 24.4213 0.0399628 24.6759 0.243632 24.8795C2.07677 26.3562 6.15032 27.2219 11.1914 27.2219C20.1533 27.2219 27.4858 19.2274 27.4858 9.39987V9.24714C28.6061 8.687 29.5226 7.61767 29.9809 6.141C30.0317 5.93727 29.9808 5.68267 29.8281 5.52993ZM26.7729 8.43234L26.4673 8.53421V9.39987C26.4673 18.6673 19.5931 26.2035 11.1913 26.2035C6.5576 26.2035 3.45152 25.4397 1.77118 24.6249C5.28466 24.3703 7.32146 23.2501 8.9 22.028L10.173 21.1115H8.6454C5.74298 21.1115 3.96078 20.2967 2.94238 18.3618C3.85892 18.6673 4.82639 18.6673 5.89572 18.6164C6.30306 18.5654 6.71046 18.5654 7.11779 18.5654L7.27053 17.547C5.33559 16.9869 3.04418 15.2556 1.92391 12.9134C2.94232 13.3716 4.06253 13.4735 5.08093 13.4735H6.65947L5.38652 12.5569C4.31719 11.7931 1.16017 9.09434 2.68778 5.2244C5.94665 8.43234 9.05279 9.90902 14.654 10.9274L15.265 11.0293V9.60354C15.265 6.44653 17.7092 3.84959 20.7644 3.79866C21.9355 3.74772 23.8705 4.81706 24.4306 5.12259C24.7361 5.27533 25.0417 5.32626 25.3471 5.22446C26.1109 4.96985 27.0275 4.61339 28.0459 4.20605C27.5876 4.96985 26.9765 5.68273 26.1619 6.34472C25.9582 6.49746 25.9073 6.80299 26.0091 7.05759C26.111 7.31219 26.4165 7.41406 26.6711 7.31219L28.6569 6.65026C28.3005 7.31214 27.7403 8.07594 26.7729 8.43234Z" fill="white"/>
</g>
<defs>
<clipPath id="clip0">
<rect width="30" height="30" fill="white"/>
</clipPath>
</defs>
</svg>
